<svg xmlns="http://www.w3.org/2000/svg" width="1894" height="1256" viewBox="0 0 1894 1256" xmlns:xlink="http://www.w3.org/1999/xlink" style="background:#e8d5ba">
  <defs>
    <path id="a" d="M309.794042,163 L157.144448,163.689065 L157.144448,163.689065 C139.471516,163.768841 125.080102,149.50677 125.000326,131.833838 C125.000109,131.78569 125,131.73754 125,131.689391 L125,16 L125,16 C125,7.163444 117.836556,-1.623249e-15 109,0 L16,0 L16,0 C7.163444,1.623249e-15 -1.082166e-15,7.163444 0,16 L0,490 L0,490 C1.082166e-15,498.836556 7.163444,506 16,506 L320.001253,506 L320.001253,506 C328.837809,506 336.001253,513.163444 336.001253,522 L336.001253,585 L336.001253,585 C336.001253,593.836556 343.164697,601 352.001253,601 L572.356575,601"/>
    <path id="b" d="M73.95987,5.5067062e-14 L308.764652,1.08497304e-13 L308.764652,1.10134124e-13 C317.048923,1.38043982e-13 323.764652,6.71572875 323.764652,15 L323.764652,48.6877408 L323.764652,48.6877408 C323.764652,66.3608528 309.437764,80.6877408 291.764652,80.6877408 L231.840672,80.6877408 L231.840672,80.6877408 C223.004116,80.6877408 215.840672,87.8511848 215.840672,96.6877408 L215.840672,231 L307.764631,231 L307.764631,231 C316.601187,231 323.764631,223.836556 323.764631,215 C323.764631,214.982852 323.764604,214.965704 323.764548,214.948556 L323.726296,203.051444 L323.726296,203.051444 C323.697884,194.214934 330.838259,187.028495 339.674769,187.000083 C339.691917,187.000028 339.709065,187 339.726213,187 L489,187 L489,187 C497.836556,187 505,194.163444 505,203 L505,282 L505,282 C505,290.836556 497.836556,298 489,298 L16.674686,298 L16.674686,298 C7.83812996,298 0.674685956,290.836556 0.674685956,282 L0.674685956,247 L0.674685956,247 C0.674685956,238.163444 7.83812996,231 16.674686,231 L221.580379,231"/>
    <path id="c" d="M261.139329,53.599973 L261.139329,566.777913 L261.139329,566.777913 C261.139329,575.614469 268.302773,582.777913 277.139329,582.777913 L633.637146,582.777913 L633.637146,582.777913 C642.473702,582.777913 649.637146,589.941357 649.637146,598.777913 L649.637146,633.598581 L649.637146,633.598581 C649.637146,642.435137 642.473702,649.598581 633.637146,649.598581 L-52.5570425,649.598581"/>
    <path id="d" d="M0.616833928,0.79507436 L0.616833928,55.6833163 L0.616833928,55.6833163 C0.616833928,64.5198723 7.78027793,71.6833163 16.6168339,71.6833163 L108.055267,71.6833163 L108.055267,71.6833163 C125.728379,71.6833163 140.055267,86.0102043 140.055267,103.683316 L140.055267,219.633272 L140.055267,219.633272 C140.055267,228.469828 147.218711,235.633272 156.055267,235.633272 L218.075793,235.633272 L218.075793,235.633272 C226.912349,235.633272 234.075793,228.469828 234.075793,219.633272 L234.075793,0.666684454"/>
    <path id="e" d="M428,1.77635684e-14 L428,1256"/>
    <path id="f" d="M416,1.77635684e-14 L416,1256"/>
    <path id="g" d="M298,508.25 L430,508.25 L430,508.25 C438.836556,508.25 446,501.086556 446,492.25 L446,433"/>
    <path id="h" d="M407.608768,89.5 L445.741375,89.5 L445.741375,89.5 C454.577931,89.5 461.741375,96.663444 461.741375,105.5 L461.741375,123.959286 L461.741375,123.959286 C461.741375,132.795842 468.904819,139.959286 477.741375,139.959286 L503.872604,139.959286 L503.872604,139.959286 C512.70916,139.959286 519.872604,132.795842 519.872604,123.959286 L519.872604,88.8479377 L519.872604,0.260795797"/>
    <path id="i" d="M446.528345,89.4306833 L228,89.4306833 L228,89.4306833 C219.163444,89.4306833 212,96.5941273 212,105.430683 L212,251 L212,313.033089 L212,313.033089 C212,321.869645 219.163444,329.033089 228,329.033089 L287.451045,329.033089 L287.451045,329.033089 C305.124157,329.033089 319.451045,343.359977 319.451045,361.033089 L319.451045,492.210354 L319.451045,492.210354 C319.451045,501.04691 312.287601,508.210354 303.451045,508.210354 L228,508.210354 L228,508.210354 C219.163444,508.210354 212,501.04691 212,492.210354 L212,464.608392 L212,464.608392 C212,448.03985 198.568542,434.608392 182,434.608392 L97.1912568,434.608392 L31.821602,434.608392 L31.821602,434.608392 C14.7007748,434.608392 0.821602013,448.487565 0.821602013,465.608392 L0.821602013,545.70795 L0.821602013,545.70795 C0.821602013,562.276492 14.2530595,575.70795 30.821602,575.70795 L196,575.70795 L196,575.70795 C204.836556,575.70795 212,568.544506 212,559.70795 L212,489.782528"/>
    <polygon id="j" points="30.459 .077 .06 .077 .06 60.94 60.857 60.94 60.857 .077"/>
    <path id="l" d="M0.91003418,416.443394 L0.91003418,16 L0.91003418,16 C0.91003418,7.163444 8.07347818,6.20194e-14 16.9100342,6.03961325e-14 L603.796338,8.59110959e-15 L603.796338,7.10542736e-15 C612.632894,5.48215986e-15 619.796338,7.163444 619.796338,16 L619.796338,978.773891"/>
    <rect id="m" width="48" height="48" x="594" y="237" rx="8"/>
    <path id="n" d="M51,1117 L51,1178"/>
    <path id="o" d="M66,1117 L66,1178"/>
    <path id="p" d="M57,1015 L57,1058"/>
    <path id="q" d="M57,899 L57,964.007692"/>
    <path id="r" d="M57,774 L57,839.007692"/>
    <path id="s" d="M57,659 L57,724.007692"/>
    <path id="t" d="M57,566 L57,609"/>
    <path id="u" d="M57,446 L57,511.007692"/>
    <path id="v" d="M57,301 L57,386.826266"/>
    <polygon id="w" points="95.165 .222 0 .222 0 190.806 190.33 190.806 190.33 .222"/>
  </defs>
  <g fill="none" fill-rule="evenodd">
    <rect width="750" height="750" x="677" y="253" fill="#F8F8F8" rx="16"/>
    <g transform="translate(320 -4)">
      <rect width="48" height="1262" x="274" fill="#E9E9E9"/>
      <rect width="1296" height="48" y="1047" fill="#E9E9E9"/>
      <rect width="1296" height="48" y="173" fill="#E9E9E9"/>
      <rect width="48" height="1262" x="1144" y="1" fill="#E9E9E9"/>
      <rect width="48" height="1256" x="1270" y="4" fill="#E9E9E9"/>
      <path fill="#B4B4B4" d="M600.195888,1081.99901 L607,1082 L595.001551,1058 L583,1081.99651 L590.204064,1081.99756 C590.252782,1080.78613 590.739574,1079.58886 591.664801,1078.66363 C593.617304,1076.71113 596.782378,1076.71283 598.734032,1078.66448 C599.659489,1079.58994 600.146864,1080.78739 600.195888,1081.99901 Z" transform="rotate(90 595 1070)"/>
      <path fill="#B4B4B4" d="M304.999999,764.998982 L312,765 L300.001551,741 L288,764.996511 L295,764.997529 C295.000561,763.718658 295.488687,762.439749 296.464801,761.463635 C298.417304,759.511132 301.582378,759.512829 303.534032,761.464483 C304.510381,762.440832 304.999142,763.71991 304.999999,764.998982 Z"/>
      <path fill="#B4B4B4" d="M600.195888,210.999011 L607,211 L595.001551,187 L583,210.996511 L590.204064,210.997558 C590.252782,209.786135 590.739574,208.588862 591.664801,207.663635 C593.617304,205.711132 596.782378,205.712829 598.734032,207.664483 C599.659489,208.58994 600.146864,209.787389 600.195888,210.999011 Z" transform="rotate(-90 595 199)"/>
    </g>
    <g transform="translate(1527 844)">
      <circle cx="24" cy="24" r="24" fill="#AAC5E3" stroke="#979797" stroke-linecap="square"/>
      <text fill="#FFFFFF" font-family="SFUIDisplay-Regular, SF UI Display" font-size="32" letter-spacing=".622">
        <tspan x="15.212" y="35">P</tspan>
      </text>
    </g>
    <rect width="64" height="1256" x="1638" fill="#BFD4A9"/>
    <rect width="192" height="1256" x="1702" fill="#B6CBE3"/>
    <g transform="translate(602 176)" font-family="GillSans, Gill Sans" letter-spacing="1.244" font-size="32">
      <text fill="#006AE3" fill-opacity=".5" transform="rotate(-90 1194 172.5)">
        <tspan x="1073.396" y="183.5">Willamette River</tspan>
      </text>
      <text fill="#808080" fill-opacity=".499">
        <tspan x="85.689" y="29">SW Oak St</tspan>
      </text>
      <text fill="#808080" fill-opacity=".499">
        <tspan x="94.124" y="900">SW Stark St</tspan>
      </text>
      <text fill="#808080" fill-opacity=".499" transform="rotate(-90 18 729.5)">
        <tspan x="-68.293" y="740.5">SW 2nd Ave</tspan>
      </text>
      <text fill="#808080" fill-opacity=".499" transform="rotate(-90 1014 692)">
        <tspan x="901.7" y="703">SW Naito Pkwy</tspan>
      </text>
    </g>
    <g transform="translate(730 465)" stroke-linecap="round">
      <use stroke="#979797" stroke-width="16" xlink:href="#a"/>
      <use stroke="#FFFFFF" stroke-width="14" xlink:href="#a"/>
      <use stroke="#FFC346" stroke-width="12" xlink:href="#a"/>
    </g>
    <g transform="matrix(-1 0 0 1 1374.675 643)" stroke-linecap="round">
      <use stroke="#979797" stroke-width="16" xlink:href="#b"/>
      <use stroke="#FFFFFF" stroke-width="14" xlink:href="#b"/>
      <use stroke="#FFE746" stroke-width="12" xlink:href="#b"/>
    </g>
    <g transform="matrix(0 -1 -1 0 1094.14 904.14)" stroke-linecap="round">
      <use stroke="#979797" stroke-width="16" xlink:href="#c"/>
      <use stroke="#FFFFFF" stroke-width="14" xlink:href="#c"/>
      <use stroke="#8B572A" stroke-width="12" xlink:href="#c"/>
    </g>
    <g transform="translate(730 378)" stroke-linecap="round">
      <use stroke="#979797" stroke-width="16" xlink:href="#d"/>
      <use stroke="#FFFFFF" stroke-width="14" xlink:href="#d"/>
      <use stroke="#C533DB" stroke-width="12" xlink:href="#d"/>
    </g>
    <g transform="translate(1066)" stroke-linecap="square">
      <use stroke="#979797" stroke-width="16" xlink:href="#e"/>
      <use stroke="#FFFFFF" stroke-width="14" xlink:href="#e"/>
      <use stroke="#D0021B" stroke-width="12" xlink:href="#e"/>
      <g>
        <use stroke="#979797" stroke-width="16" xlink:href="#f"/>
        <use stroke="#FFFFFF" stroke-width="14" xlink:href="#f"/>
        <use stroke="#3C68F8" stroke-width="12" xlink:href="#f"/>
      </g>
    </g>
    <g transform="translate(854 380)">
      <g stroke-linecap="round">
        <use stroke="#979797" stroke-width="16" xlink:href="#g"/>
        <use stroke="#FFFFFF" stroke-width="14" xlink:href="#g"/>
        <use stroke="#B3B3B3" stroke-width="12" xlink:href="#g"/>
      </g>
      <path stroke="#FFFFFF" stroke-width="4" d="M298,508.23999 L430,508.23999 L430,508.23999 C438.836556,508.23999 446,501.076546 446,492.23999 L446,429" stroke-dasharray="8 8"/>
      <g stroke-linecap="round">
        <use stroke="#979797" stroke-width="16" xlink:href="#h"/>
        <use stroke="#FFFFFF" stroke-width="14" xlink:href="#h"/>
        <use stroke="#B3B3B3" stroke-width="12" xlink:href="#h"/>
      </g>
      <path stroke="#FFFFFF" stroke-width="4" d="M407.608768,89.5 L445.741375,89.5 L445.741375,89.5 C454.577931,89.5 461.741375,96.663444 461.741375,105.5 L461.741375,123.959286 L461.741375,123.959286 C461.741375,132.795842 468.904819,139.959286 477.741375,139.959286 L503.872604,139.959286 L503.872604,139.959286 C512.70916,139.959286 519.872604,132.795842 519.872604,123.959286 L519.872604,88.8479377 L519.872604,0.260795797" stroke-dasharray="8 8"/>
      <g stroke-linecap="round">
        <use stroke="#979797" stroke-width="16" xlink:href="#i"/>
        <use stroke="#FFFFFF" stroke-width="14" xlink:href="#i"/>
        <use stroke="#B3B3B3" stroke-width="12" xlink:href="#i"/>
      </g>
      <path fill="#FFFFFF" d="M163.164953,438.999588 L166,439 L161.000646,429 L156,438.998546 L159.001693,438.998983 C159.021993,438.494223 159.224823,437.995359 159.610334,437.609848 C160.423877,436.796305 161.742657,436.797012 162.555847,437.610201 C162.941454,437.995808 163.144527,438.494745 163.164953,438.999588 Z" transform="rotate(-90 161 434)"/>
      <path fill="#FFFFFF" d="M169.164953,580.999588 L172,581 L167.000646,571 L162,580.998546 L165.001693,580.998983 C165.021993,580.494223 165.224823,579.995359 165.610334,579.609848 C166.423877,578.796305 167.742657,578.797012 168.555847,579.610201 C168.941454,579.995808 169.144527,580.494745 169.164953,580.999588 Z" transform="rotate(90 167 576)"/>
    </g>
    <g opacity=".501" transform="translate(433 1132)">
      <text fill="#4A4A4A" font-family="GillSans, Gill Sans" font-size="24" letter-spacing=".933">
        <tspan x="10.688" y="93">North</tspan>
      </text>
      <g transform="translate(12 6)">
        <mask id="k" fill="white">
          <use xlink:href="#j"/>
        </mask>
        <path fill="#4A4A4A" d="M30.429 8.647C42.114 8.647 51.661 17.807 52.285 29.338L60.857 29.338C60.685 20.535 58.667 12.385 55.302 5.667 48.277 2.146 39.695.077 30.429.077 21.163.077 12.582 2.146 5.557 5.667 2.189 12.385.171 20.535 0 29.338L8.571 29.338C9.195 17.807 18.742 8.647 30.429 8.647M30.429 52.43C18.742 52.43 9.195 43.271 8.571 31.738L0 31.738C.171 40.542 2.189 48.693 5.557 55.412 12.582 58.931 21.163 61 30.429 61 39.695 61 48.277 58.931 55.302 55.412 58.667 48.693 60.685 40.542 60.857 31.738L52.285 31.738C51.662 43.271 42.114 52.43 30.429 52.43" mask="url(#k)"/>
        <path fill="#4A4A4A" d="M30.428,34.706 C28.126,34.706 26.261,32.84 26.261,30.538 C26.261,28.238 28.126,26.372 30.428,26.372 C32.729,26.372 34.593,28.238 34.593,30.538 C34.593,32.84 32.729,34.706 30.428,34.706 Z M22.691,22.797 L22.69,22.801 L22.69,22.8 L14.948,46.019 L38.165,38.276 L38.166,38.277 L38.17,38.275 L45.906,15.06 L22.691,22.797 L22.691,22.797 Z" transform="rotate(-68 30.427 30.54)"/>
      </g>
    </g>
    <g transform="translate(1050 198)" stroke-linecap="round">
      <use stroke="#979797" stroke-width="16" xlink:href="#l"/>
      <use stroke="#FFFFFF" stroke-width="14" xlink:href="#l"/>
      <use stroke="#417505" stroke-width="12" xlink:href="#l"/>
      <use stroke="#FFFFFF" stroke-width="2" xlink:href="#l"/>
    </g>
    <g transform="translate(440 375)">
      <use fill="#F8F8F8" xlink:href="#m"/>
      <rect width="47" height="47" x="594.5" y="237.5" stroke="#959595" rx="8"/>
      <circle cx="733.5" cy="371.5" r="4.5" fill="#F8F8F8" stroke="#979797" stroke-linecap="square"/>
      <circle cx="733.5" cy="268" r="4.5" fill="#F8F8F8" stroke="#979797" stroke-linecap="square"/>
      <circle cx="860.5" cy="268" r="4.5" fill="#F8F8F8" stroke="#979797" stroke-linecap="square"/>
      <circle cx="626" cy="475.5" r="4.5" fill="#F8F8F8" stroke="#979797" stroke-linecap="square"/>
      <circle cx="733.5" cy="94" r="4.5" fill="#F8F8F8" stroke="#979797" stroke-linecap="square"/>
      <circle cx="860" cy="94" r="4.5" fill="#F8F8F8" stroke="#979797" stroke-linecap="square"/>
      <circle cx="934" cy="5.5" r="4.5" fill="#F8F8F8" stroke="#979797" stroke-linecap="square"/>
      <circle cx="626" cy="314.5" r="4.5" fill="#F8F8F8" stroke="#979797" stroke-linecap="square"/>
      <circle cx="733.5" cy="439.5" r="4.5" fill="#F8F8F8" stroke="#979797" stroke-linecap="square"/>
      <circle cx="415" cy="524.5" r="4.5" fill="#F8F8F8" stroke="#979797" stroke-linecap="square"/>
      <circle cx="860" cy="439.5" r="4.5" fill="#F8F8F8" stroke="#979797" stroke-linecap="square"/>
      <circle cx="524" cy="439.5" r="4.5" fill="#F8F8F8" stroke="#979797" stroke-linecap="square"/>
      <circle cx="503.5" cy="253.5" r="4.5" fill="#F8F8F8" stroke="#979797" stroke-linecap="square"/>
      <circle cx="503.5" cy="238.5" r="4.5" fill="#F8F8F8" stroke="#979797" stroke-linecap="square"/>
      <circle cx="503.5" cy="268" r="4.5" fill="#F8F8F8" stroke="#979797" stroke-linecap="square"/>
      <circle cx="458.5" cy="238.5" r="4.5" fill="#F8F8F8" stroke="#979797" stroke-linecap="square"/>
      <circle cx="458.5" cy="252.5" r="4.5" fill="#F8F8F8" stroke="#979797" stroke-linecap="square"/>
      <circle cx="458.5" cy="268" r="4.5" fill="#F8F8F8" stroke="#979797" stroke-linecap="square"/>
      <circle cx="415" cy="181.5" r="4.5" fill="#F8F8F8" stroke="#979797" stroke-linecap="square"/>
      <circle cx="290" cy="371.5" r="4.5" fill="#F8F8F8" stroke="#979797" stroke-linecap="square"/>
      <circle cx="415" cy="109.5" r="4.5" fill="#F8F8F8" stroke="#979797" stroke-linecap="square"/>
      <circle cx="860" cy="691" r="4.5" fill="#F8F8F8" stroke="#979797" stroke-linecap="square"/>
      <circle cx="4.5" cy="94" r="4.5" fill="#F8F8F8" stroke="#979797" stroke-linecap="square"/>
      <circle cx="4.5" cy="580.5" r="4.5" fill="#F8F8F8" stroke="#979797" stroke-linecap="square"/>
      <circle cx="108.5" cy="268" r="4.5" fill="#F8F8F8" stroke="#979797" stroke-linecap="square"/>
      <circle cx="524" cy="4.5" r="4.5" fill="#F8F8F8" stroke="#979797" stroke-linecap="square"/>
      <circle cx="290.5" cy="4.5" r="4.5" fill="#F8F8F8" stroke="#979797" stroke-linecap="square"/>
      <circle cx="1230" cy="268" r="4.5" fill="#F8F8F8" stroke="#979797" stroke-linecap="square"/>
      <circle cx="1230" cy="799.5" r="4.5" fill="#F8F8F8" stroke="#979797" stroke-linecap="square"/>
      <circle cx="1042" cy="268" r="4.5" fill="#F8F8F8" stroke="#979797" stroke-linecap="square"/>
      <circle cx="1055" cy="268" r="4.5" fill="#F8F8F8" stroke="#979797" stroke-linecap="square"/>
      <circle cx="524" cy="580.5" r="4.5" fill="#F8F8F8" stroke="#979797" stroke-linecap="square"/>
      <circle cx="458.5" cy="439.5" r="4.5" fill="#F8F8F8" stroke="#979797" stroke-linecap="square"/>
      <circle cx="415" cy="475.5" r="4.5" fill="#F8F8F8" stroke="#979797" stroke-linecap="square"/>
      <circle cx="430" cy="475.5" r="4.5" fill="#F8F8F8" stroke="#979797" stroke-linecap="square"/>
      <circle cx="860" cy="566" r="4.5" fill="#F8F8F8" stroke="#979797" stroke-linecap="square"/>
    </g>
    <g fill="#6B6B6B" transform="translate(297 312)" font-family="GillSans, Gill Sans">
      <text transform="rotate(-23 1444.395 289.374)" font-size="24" letter-spacing=".933">
        <tspan x="1383.895" y="297.374">Waterfront</tspan>
      </text>
      <text transform="rotate(-23 925.274 112.573)" font-size="24" letter-spacing=".933">
        <tspan x="869.774" y="120.573">Burlington</tspan>
      </text>
      <text transform="rotate(-23 726.558 35.478)" font-size="24" letter-spacing=".933">
        <tspan x="671.058" y="43.478">Puppet</tspan>
      </text>
      <text transform="rotate(-23 496.558 39.478)" font-size="24" letter-spacing=".933">
        <tspan x="441.058" y="47.478">Chili Pit</tspan>
      </text>
      <text transform="rotate(-23 545.926 177.39)" font-size="24" letter-spacing=".933">
        <tspan x="513.926" y="185.39">P2</tspan>
      </text>
      <text transform="rotate(-23 69.578 182.099)" font-size="24" letter-spacing=".933">
        <tspan x="58.961" y="190.099">SW 5th</tspan>
      </text>
      <text transform="rotate(-23 69.578 668.099)" font-size="24" letter-spacing=".933">
        <tspan x="57.578" y="676.099">SW 3rd</tspan>
      </text>
      <text transform="rotate(-23 312.313 282.946)" font-size="24" letter-spacing=".933">
        <tspan x="242.67" y="290.946">SW 2nd</tspan>
      </text>
      <text transform="rotate(-23 546.058 242.39)" font-size="24" letter-spacing=".933">
        <tspan x="514.058" y="250.39">P1</tspan>
      </text>
      <text transform="rotate(-23 497.495 414.535)" font-size="24" letter-spacing=".933">
        <tspan x="446.92" y="408.535">Fitness </tspan> <tspan x="446.92" y="436.535">Center</tspan>
      </text>
      <text transform="rotate(-23 838.78 267.94)" font-size="24" letter-spacing=".933">
        <tspan x="779.78" y="275.94">Willamette</tspan>
      </text>
      <text transform="rotate(-23 931.249 275.212)" font-size="24" letter-spacing=".933">
        <tspan x="872.249" y="269.212">Kombucha/</tspan> <tspan x="872.249" y="297.212">Cold Brew</tspan>
      </text>
      <text transform="rotate(-23 1046.78 283.94)" font-size="24" letter-spacing=".933">
        <tspan x="987.78" y="291.94">Beer/Cider</tspan>
      </text>
      <text transform="rotate(-23 623.83 467.32)" font-size="24" letter-spacing=".933">
        <tspan x="584.33" y="475.321">Tilikum</tspan>
      </text>
      <text transform="rotate(-23 487.657 558.01)" font-size="24" letter-spacing=".933">
        <tspan x="481.879" y="566.01">Snacks</tspan>
      </text>
      <text transform="rotate(-23 1037.148 597.758)" font-size="24" letter-spacing=".933">
        <tspan x="1004.648" y="605.758">Desks</tspan>
      </text>
      <text transform="rotate(-23 711.575 465.033)" font-size="24" letter-spacing=".933">
        <tspan x="662.575" y="473.033">Morrison</tspan>
      </text>
      <text transform="rotate(-23 698.5 556.056)" font-size="24" letter-spacing=".933">
        <tspan x="652.291" y="564.056">Burnside</tspan>
      </text>
      <text transform="rotate(-23 934.876 412.01)" font-size="24" letter-spacing=".933">
        <tspan x="883.376" y="420.01">Broadway</tspan>
      </text>
      <text transform="rotate(-23 914.403 483.046)" font-size="24" letter-spacing=".933">
        <tspan x="888.403" y="491.046">Steel</tspan>
      </text>
      <text transform="rotate(-23 1053.052 470.689)" font-size="24" letter-spacing=".933">
        <tspan x="1010.052" y="478.689">Oswego</tspan>
      </text>
      <text transform="rotate(-23 1053.194 717.447)" font-size="24" letter-spacing=".933">
        <tspan x="1005.694" y="725.447">Bikeways</tspan>
      </text>
      <text transform="rotate(-23 699.353 394.665)" font-size="24" letter-spacing=".933">
        <tspan x="653.853" y="402.665">Fremont</tspan>
      </text>
      <text transform="rotate(-23 542.095 367.624)" font-size="24" letter-spacing=".933">
        <tspan x="537.144" y="375.624">Lobby</tspan>
      </text>
      <text transform="rotate(-23 586.896 376.932)" font-size="24" letter-spacing=".933">
        <tspan x="573.877" y="384.932">Elevator</tspan>
      </text>
      <text transform="rotate(-23 477.896 618.432)" font-size="22" letter-spacing=".856">
        <tspan x="443.339" y="625.932">Hawthorne</tspan>
      </text>
      <text transform="rotate(-23 600.896 698.932)" font-size="24" letter-spacing=".933">
        <tspan x="578.065" y="706.932">Marquam</tspan>
      </text>
      <text transform="rotate(-23 1027.558 112.573)" font-size="24" letter-spacing=".933">
        <tspan x="972.058" y="120.573">St. Johns</tspan>
      </text>
      <text transform="rotate(-23 1293.51 276.858)" font-size="24" letter-spacing=".933">
        <tspan x="1204.009" y="284.858">Oak/SW 1st</tspan>
      </text>
      <text transform="rotate(-23 1136.064 36.874)" font-size="24" letter-spacing=".933">
        <tspan x="1080.564" y="44.874">Sellwood</tspan>
      </text>
      <text transform="rotate(-23 1458.895 821.374)" font-size="24" letter-spacing=".933">
        <tspan x="1378.895" y="829.374">Salmon Springs</tspan>
      </text>
    </g>
    <rect width="320" height="1256" fill="#F8F8F8"/>
    <text fill="#4A4A4A" font-family="GillSans, Gill Sans" font-size="24" letter-spacing=".933">
      <tspan x="84" y="1155">TriMet service </tspan> <tspan x="84" y="1183">(trimet.org)</tspan>
    </text>
    <text fill="#4A4A4A" font-family="GillSans, Gill Sans" font-size="24" letter-spacing=".933" text-decoration="underline">
      <tspan x="84" y="1127">MAX</tspan>
    </text>
    <text fill="#4A4A4A" font-family="GillSans, Gill Sans" font-size="24" letter-spacing=".933">
      <tspan x="84" y="1057">Puppet/Chili Pit</tspan>
    </text>
    <text fill="#4A4A4A" font-family="GillSans, Gill Sans" font-size="24" letter-spacing=".933" text-decoration="underline">
      <tspan x="84" y="1029">P Line</tspan>
    </text>
    <text fill="#4A4A4A" font-family="GillSans, Gill Sans" font-size="24" letter-spacing=".933">
      <tspan x="84" y="939">Waterfront Park </tspan> <tspan x="84" y="967">(seasonal service)</tspan>
    </text>
    <text fill="#4A4A4A" font-family="GillSans, Gill Sans" font-size="24" letter-spacing=".933" text-decoration="underline">
      <tspan x="84" y="911">W Line</tspan>
    </text>
    <text fill="#4A4A4A" font-family="GillSans, Gill Sans" font-size="24" letter-spacing=".933">
      <tspan x="84" y="814">All day service to </tspan> <tspan x="84" y="842">snacks</tspan>
    </text>
    <text fill="#4A4A4A" font-family="GillSans, Gill Sans" font-size="24" letter-spacing=".933" text-decoration="underline">
      <tspan x="84" y="786">S Line</tspan>
    </text>
    <text fill="#4A4A4A" font-family="GillSans, Gill Sans" font-size="24" letter-spacing=".933">
      <tspan x="84" y="700">Midday service to </tspan> <tspan x="84" y="728">food carts</tspan>
    </text>
    <text fill="#4A4A4A" font-family="GillSans, Gill Sans" font-size="24" letter-spacing=".933" text-decoration="underline">
      <tspan x="84" y="672">F Line</tspan>
    </text>
    <text fill="#4A4A4A" font-family="GillSans, Gill Sans" font-size="24" letter-spacing=".933">
      <tspan x="84" y="606">Peak service only</tspan>
    </text>
    <text fill="#4A4A4A" font-family="GillSans, Gill Sans" font-size="24" letter-spacing=".933" text-decoration="underline">
      <tspan x="84" y="597">M Line extensions</tspan>
    </text>
    <text fill="#4A4A4A" font-family="GillSans, Gill Sans" font-size="24" letter-spacing=".933">
      <tspan x="84" y="487">Frequent, all day </tspan> <tspan x="84" y="515">service to meetings</tspan>
    </text>
    <text fill="#4A4A4A" font-family="GillSans, Gill Sans" font-size="24" letter-spacing=".933" text-decoration="underline">
      <tspan x="84" y="459">M Line</tspan>
    </text>
    <text fill="#4A4A4A" font-family="GillSans, Gill Sans" font-size="24" letter-spacing=".933">
      <tspan x="84" y="338">Basement/Bikes </tspan> <tspan x="84" y="366">(transfer to city </tspan> <tspan x="84" y="394">bikeways)</tspan>
    </text>
    <text fill="#4A4A4A" font-family="GillSans, Gill Sans" font-size="24" letter-spacing=".933" text-decoration="underline">
      <tspan x="84" y="310">B Line</tspan>
    </text>
    <g stroke-linecap="round">
      <use stroke="#979797" stroke-width="16" xlink:href="#n"/>
      <use stroke="#FFFFFF" stroke-width="14" xlink:href="#n"/>
      <use stroke="#3C68F8" stroke-width="12" xlink:href="#n"/>
    </g>
    <g stroke-linecap="round">
      <use stroke="#979797" stroke-width="16" xlink:href="#o"/>
      <use stroke="#FFFFFF" stroke-width="14" xlink:href="#o"/>
      <use stroke="#D0021B" stroke-width="12" xlink:href="#o"/>
    </g>
    <g stroke-linecap="round">
      <use stroke="#979797" stroke-width="16" xlink:href="#p"/>
      <use stroke="#FFFFFF" stroke-width="14" xlink:href="#p"/>
      <use stroke="#C533DB" stroke-width="12" xlink:href="#p"/>
    </g>
    <g stroke-linecap="round">
      <use stroke="#979797" stroke-width="16" xlink:href="#q"/>
      <use stroke="#FFFFFF" stroke-width="14" xlink:href="#q"/>
      <use stroke="#417505" stroke-width="12" xlink:href="#q"/>
      <use stroke="#FFFFFF" stroke-width="2" xlink:href="#q"/>
    </g>
    <g stroke-linecap="round">
      <use stroke="#979797" stroke-width="16" xlink:href="#r"/>
      <use stroke="#FFFFFF" stroke-width="14" xlink:href="#r"/>
      <use stroke="#FFE746" stroke-width="12" xlink:href="#r"/>
    </g>
    <g stroke-linecap="round">
      <use stroke="#979797" stroke-width="16" xlink:href="#s"/>
      <use stroke="#FFFFFF" stroke-width="14" xlink:href="#s"/>
      <use stroke="#8B572A" stroke-width="12" xlink:href="#s"/>
    </g>
    <g stroke-linecap="round">
      <use stroke="#979797" stroke-width="16" xlink:href="#t"/>
      <use stroke="#FFFFFF" stroke-width="14" xlink:href="#t"/>
      <use stroke="#B3B3B3" stroke-width="12" xlink:href="#t"/>
    </g>
    <path stroke="#FFFFFF" stroke-width="4" d="M57,566 L57,609" stroke-dasharray="8 8"/>
    <g stroke-linecap="round">
      <use stroke="#979797" stroke-width="16" xlink:href="#u"/>
      <use stroke="#FFFFFF" stroke-width="14" xlink:href="#u"/>
      <use stroke="#B3B3B3" stroke-width="12" xlink:href="#u"/>
    </g>
    <g stroke-linecap="round">
      <use stroke="#979797" stroke-width="16" xlink:href="#v"/>
      <use stroke="#FFFFFF" stroke-width="14" xlink:href="#v"/>
      <use stroke="#FFC346" stroke-width="12" xlink:href="#v"/>
    </g>
    <g transform="translate(402 31)">
      <rect width="150" height="90" fill="#00693C" fill-rule="nonzero"/>
      <rect width="27.5" height="27.5" x="52.5" y="31.25" fill="#FFFFFF" fill-rule="nonzero"/>
      <g fill="#4B92DB" fill-rule="nonzero">
        <rect width="10" height="33.75" x="55"/>
        <rect width="72.5" height="10" x="77.5" y="33.75"/>
        <rect width="10" height="33.75" x="67.5" y="56.25"/>
        <rect width="55" height="10" y="46.25"/>
      </g>
      <g fill="#4B92DB" fill-rule="nonzero" transform="translate(45 23.75)">
        <circle cx="10" cy="10" r="10"/>
        <circle cx="32.5" cy="10" r="10"/>
        <circle cx="32.5" cy="32.5" r="10"/>
        <circle cx="10" cy="32.5" r="10"/>
      </g>
      <path stroke="#FFFFFF" stroke-width="10" d="M50,0 L50,41.25 L0,41.25 M0,61.25 L62.5,61.25 L62.5,90 M82.5,90 L82.5,48.75 L150,48.75 M150,28.75 L70,28.75 L70,0"/>
      <path stroke="#FFB612" stroke-width="5" d="M50,0 L50,41.25 L0,41.25 M0,61.25 L62.5,61.25 L62.5,90 M82.5,90 L82.5,48.75 L150,48.75 M150,28.75 L70,28.75 L70,0"/>
    </g>
    <g transform="translate(27 30)">
      <g transform="translate(30)">
        <mask id="x" fill="white">
          <use xlink:href="#w"/>
        </mask>
        <path fill="#DC241F" d="M17.463375,17.7283343 C6.4629,39.7223602 0.003225,66.5989177 0.003225,95.6095618 C0.003225,124.63314 6.4629,151.50323 17.463375,173.503723 C39.412725,184.52337 66.212475,190.996767 95.166525,190.996767 C124.107675,190.996767 150.920325,184.52337 172.869675,173.503723 C183.866925,151.50323 190.3266,124.63314 190.3266,95.6095618 C190.3266,66.5989177 183.866925,39.7288272 172.869675,17.7283343 C150.920325,6.70222008 124.107675,0.222357087 95.166525,0.222357087 C66.212475,0.222357087 39.412725,6.70222008 17.463375,17.7283343" mask="url(#x)"/>
        <path fill="#DC241F" d="M95.1633,191 C124.107675,191 150.9171,184.526604 172.86645,173.506957 C183.8637,151.506464 190.329825,124.63314 190.329825,95.6063283 L0,95.6063283 C0,124.63314 6.466125,151.506464 17.463375,173.506957 C39.41595,184.526604 66.218925,191 95.1633,191" mask="url(#x)"/>
        <path fill="#FFFFFE" d="M164,95.4983861 C164,133.29168 133.326574,163.929134 95.5048452,163.929134 C57.6669653,163.929134 27,133.29168 27,95.4983861 C27,57.7083199 57.6669653,27.0708661 95.5048452,27.0708661 C133.326574,27.0708661 164,57.7083199 164,95.4983861"/>
      </g>
      <path stroke="#20406B" stroke-width="38.5" d="M0,96.2519685 L250,96.2519685"/>
      <g fill="#FFFFFF" fill-rule="nonzero" transform="translate(17.5 85.223)">
        <path d="M0,12.0314961 L0,0.238343937 L3.684925,0.238343937 L3.699675,12.4305106 C3.79934,15.4681024 6.039915,17.8998984 8.79961,17.9428458 C11.64437,17.9428458 13.94376,15.4157454 13.94376,12.4305106 L13.94376,0.238343937 L17.613945,0.238343937 L17.628695,12.0906058 C17.628695,17.4994952 13.70794,21.5339917 8.79962,21.5339917 C3.891295,21.5339917 2e-05,17.1891478 2e-05,12.0314961 L0,12.0314961 Z" transform="translate(.247 .482)"/>
        <polygon points="14.5 21.055 18.185 21.055 18.185 .498 14.5 .498 14.5 14.582 3.917 .498 .217 .498 .217 21.055 3.917 21.055 3.917 7.237" transform="translate(21.431 .222)"/>
        <path d="M0,0 L0,20.5462309 L7.42616,20.5305399 C12.820885,20.5305449 17.155375,15.9147567 17.155375,10.2102985 C17.155375,4.55018147 12.929635,1.50393701e-05 7.520165,1.50393701e-05 L0,0 Z M7.394825,3.76995399 C10.784955,3.76995399 13.50496,6.67825234 13.50496,10.2102835 C13.50496,13.7866557 10.690955,16.6663241 7.300825,16.6663241 L3.72875,16.6820152 L3.72875,3.78564005 L7.394825,3.76995399 Z" transform="translate(43.547 .727)"/>
        <polygon points="75.994 21.278 75.994 17.154 67.253 17.154 67.253 12.351 73.827 12.351 73.827 8.391 67.253 8.391 67.253 4.785 75.729 4.785 75.729 .721 63.568 .721 63.568 21.278"/>
        <path d="M0,-8.85847243e-16 L0,20.5462309 L3.697415,20.5462309 L3.697415,12.362297 L5.906465,12.362297 L11.703255,20.5462309 L15.698345,20.5462309 L9.74488,11.6240144 C11.73474,10.5895263 13.081955,8.59880496 13.081955,6.2047127 C13.081955,2.79090604 10.31403,-1.77635684e-15 6.909155,-1.77635684e-15 L0,-8.85847243e-16 Z M3.744415,3.6285789 L6.909155,3.64426997 C8.324165,3.64426997 9.462875,4.78596871 9.462875,6.20469766 C9.462875,7.60864291 8.32417,8.74941423 6.909155,8.74941423 L3.744415,8.74941423 L3.744415,3.6285789 Z" transform="translate(79.346 .758)"/>
        <path d="M98.57511,10.4154305 C98.57511,5.37600331 104.544685,1.75529501 112.356725,5.78979654 L112.356725,1.75529501 C105.11953,-1.46638871 94.949145,0.218346588 94.949145,10.5779911 C94.949145,20.9376406 106.048135,24.7947978 112.6073,19.0903447 L112.6073,9.30705402 L105.620685,9.30705402 L105.620685,12.8538689 L108.922375,12.8538689 L108.922375,17.4056094 C102.92332,19.8440377 98.57511,16.0607739 98.57511,10.4154305 L98.57511,10.4154305 Z"/>
        <path d="M0,-8.85847243e-16 L0,20.5462309 L3.697415,20.5462309 L3.697415,12.362297 L5.906465,12.362297 L11.703255,20.5462309 L15.698345,20.5462309 L9.74488,11.6240144 C11.73474,10.5895263 13.081955,8.59880496 13.081955,6.2047127 C13.081955,2.79090604 10.31403,-1.77635684e-15 6.909155,-1.77635684e-15 L0,-8.85847243e-16 Z M3.744415,3.6285789 L6.909155,3.64426997 C8.324165,3.64426997 9.462875,4.78596871 9.462875,6.20469766 C9.462875,7.60864291 8.32417,8.74941423 6.909155,8.74941423 L3.744415,8.74941423 L3.744415,3.6285789 Z" transform="translate(115.96 .758)"/>
        <path d="M141.998745,0.271129764 C136.353445,0.271129764 131.783855,5.08842549 131.783855,10.9997802 C131.78386,16.9259087 136.353445,21.7284307 141.998745,21.7284307 C147.644045,21.7284257 152.213635,16.9259087 152.213635,10.9997802 C152.21363,5.08842549 147.644045,0.271129764 141.998745,0.271129764 Z M141.998745,4.32382391 C145.55101,4.32382391 148.42222,7.30518853 148.42222,10.9997802 C148.42222,14.7091556 145.55101,17.7071488 141.998745,17.7071488 C138.46122,17.7071488 135.59094,14.7091556 135.59094,10.9997802 C135.59094,7.30518853 138.46122,4.32382391 141.998745,4.32382391 Z"/>
        <path d="M0,12.0314961 L0,0.238343937 L3.684925,0.238343937 L3.699675,12.4305106 C3.79934,15.4681024 6.039915,17.8998984 8.79961,17.9428458 C11.64437,17.9428458 13.94376,15.4157454 13.94376,12.4305106 L13.94376,0.238343937 L17.613945,0.238343937 L17.628695,12.0906058 C17.628695,17.4994952 13.70794,21.5339917 8.79962,21.5339917 C3.891295,21.5339917 2e-05,17.1891478 2e-05,12.0314961 L0,12.0314961 Z" transform="translate(155.102 .482)"/>
        <polygon points="14.5 21.055 18.185 21.055 18.185 .498 14.5 .498 14.5 14.582 3.917 .498 .217 .498 .217 21.055 3.917 21.055 3.917 7.237" transform="translate(176.965 .222)"/>
        <path d="M0,0 L0,20.5462309 L7.42616,20.5305399 C12.820885,20.5305449 17.155375,15.9147567 17.155375,10.2102985 C17.155375,4.55018147 12.929635,1.50393701e-05 7.520165,1.50393701e-05 L0,0 Z M7.394825,3.76995399 C10.784955,3.76995399 13.50496,6.67825234 13.50496,10.2102835 C13.50496,13.7866557 10.690955,16.6663241 7.300825,16.6663241 L3.72875,16.6820152 L3.72875,3.78564005 L7.394825,3.76995399 Z" transform="translate(199.779 .727)"/>
      </g>
    </g>
  </g>
</svg>
